<svg width="25" height="25" viewBox="0 0 25 25" fill="none" xmlns="http://www.w3.org/2000/svg">
<path d="M14.3991 18.7051C14.1091 18.4151 14.1091 17.9351 14.3991 17.6451L19.9391 12.1051L14.3991 6.5651C14.1091 6.2751 14.1091 5.7951 14.3991 5.5051C14.6891 5.2151 15.1691 5.2151 15.4591 5.5051L21.5291 11.5751C21.8191 11.8651 21.8191 12.3451 21.5291 12.6351L15.4591 18.7051C15.3091 18.8551 15.1191 18.9251 14.9291 18.9251C14.7391 18.9251 14.5491 18.8551 14.3991 18.7051Z" fill="white"/>
<path d="M4 12.855C3.59 12.855 3.25 12.515 3.25 12.105C3.25 11.695 3.59 11.355 4 11.355H20.83C21.24 11.355 21.58 11.695 21.58 12.105C21.58 12.515 21.24 12.855 20.83 12.855H4Z" fill="white"/>
</svg>
