<svg width="33" height="34" viewBox="0 0 33 34" fill="none" xmlns="http://www.w3.org/2000/svg">
<g id="arrow">
<path id="Vector" d="M21.3371 21.7663C20.9409 21.6601 20.7009 21.2444 20.8071 20.8483L22.8348 13.2805L15.2671 11.2527C14.8709 11.1466 14.6309 10.7309 14.7371 10.3347C14.8432 9.93859 15.2589 9.69859 15.655 9.80474L23.9468 12.0265C24.343 12.1327 24.583 12.5484 24.4768 12.9445L22.255 21.2363C22.2001 21.4412 22.0706 21.5968 21.906 21.6918C21.7415 21.7868 21.542 21.8212 21.3371 21.7663Z" fill="white"/>
<path id="Vector_2" d="M9.40587 21.8995C9.0508 22.1045 8.58635 21.9801 8.38135 21.625C8.17635 21.2699 8.3008 20.8055 8.65587 20.6005L23.2311 12.1855C23.5861 11.9805 24.0506 12.1049 24.2556 12.46C24.4606 12.8151 24.3361 13.2795 23.9811 13.4845L9.40587 21.8995Z" fill="white"/>
</g>
</svg>
