<svg width="24" height="25" viewBox="0 0 24 25" fill="none" xmlns="http://www.w3.org/2000/svg">
<g id="arrow-right">
<path id="Vector" d="M13.8991 18.8085C13.6091 18.5185 13.6091 18.0385 13.8991 17.7485L19.4391 12.2085L13.8991 6.66849C13.6091 6.37849 13.6091 5.89849 13.8991 5.60849C14.1891 5.31849 14.6691 5.31849 14.9591 5.60849L21.0291 11.6785C21.3191 11.9685 21.3191 12.4485 21.0291 12.7385L14.9591 18.8085C14.8091 18.9585 14.6191 19.0285 14.4291 19.0285C14.2391 19.0285 14.0491 18.9585 13.8991 18.8085Z" fill="#029972"/>
<path id="Vector_2" d="M3.5 12.9584C3.09 12.9584 2.75 12.6184 2.75 12.2084C2.75 11.7984 3.09 11.4584 3.5 11.4584H20.33C20.74 11.4584 21.08 11.7984 21.08 12.2084C21.08 12.6184 20.74 12.9584 20.33 12.9584H3.5Z" fill="#029972"/>
</g>
</svg>
