<svg width="24" height="24" viewBox="0 0 24 24" fill="none" xmlns="http://www.w3.org/2000/svg">
<g id="arrow">
<path id="Vector" d="M10.1009 5.39988C10.3909 5.68988 10.3909 6.16988 10.1009 6.45988L4.56086 11.9999L10.1009 17.5399C10.3909 17.8299 10.3909 18.3099 10.1009 18.5999C9.81086 18.8899 9.33086 18.8899 9.04086 18.5999L2.97086 12.5299C2.68086 12.2399 2.68086 11.7599 2.97086 11.4699L9.04086 5.39988C9.19086 5.24988 9.38086 5.17988 9.57086 5.17988C9.76086 5.17988 9.95086 5.24988 10.1009 5.39988Z" fill="#262626"/>
<path id="Vector_2" d="M20.5 11.25C20.91 11.25 21.25 11.59 21.25 12C21.25 12.41 20.91 12.75 20.5 12.75L3.67 12.75C3.26 12.75 2.92 12.41 2.92 12C2.92 11.59 3.26 11.25 3.67 11.25L20.5 11.25Z" fill="#262626"/>
</g>
</svg>
