<svg width="20" height="21" viewBox="0 0 20 21" fill="none" xmlns="http://www.w3.org/2000/svg">
<g id="vuesax/outline/calendar">
<path id="Vector" d="M6.04166 4.58337V2.08337C6.04166 1.74171 6.32499 1.45837 6.66666 1.45837C7.00832 1.45837 7.29166 1.74171 7.29166 2.08337V4.58337C7.29166 4.92504 7.00832 5.20837 6.66666 5.20837C6.32499 5.20837 6.04166 4.92504 6.04166 4.58337Z" fill="#262626"/>
<path id="Vector_2" d="M12.7083 4.58337V2.08337C12.7083 1.74171 12.9917 1.45837 13.3333 1.45837C13.675 1.45837 13.9583 1.74171 13.9583 2.08337V4.58337C13.9583 4.92504 13.675 5.20837 13.3333 5.20837C12.9917 5.20837 12.7083 4.92504 12.7083 4.58337Z" fill="#262626"/>
<path id="Vector_3" d="M6.76667 12.4335C6.65833 12.3919 6.575 12.3335 6.49167 12.2585C6.34167 12.1002 6.25 11.8918 6.25 11.6668C6.25 11.5585 6.275 11.4502 6.31667 11.3502C6.35833 11.2502 6.41667 11.1585 6.49167 11.0752C6.575 11.0002 6.65833 10.9418 6.76667 10.9002C7.06667 10.7752 7.44167 10.8419 7.675 11.0752C7.825 11.2335 7.91667 11.4502 7.91667 11.6668C7.91667 11.7168 7.90833 11.7752 7.9 11.8335C7.89167 11.8835 7.875 11.9335 7.85 11.9835C7.83333 12.0335 7.80833 12.0835 7.775 12.1335C7.75 12.1752 7.70833 12.2168 7.675 12.2585C7.51667 12.4085 7.3 12.5002 7.08333 12.5002C6.975 12.5002 6.86667 12.4752 6.76667 12.4335Z" fill="#262626"/>
<path id="Vector_4" d="M9.68332 12.4333C9.57499 12.3917 9.49166 12.3333 9.40832 12.2583C9.25832 12.1 9.16666 11.8916 9.16666 11.6666C9.16666 11.5583 9.19166 11.45 9.23332 11.35C9.27499 11.25 9.33332 11.1583 9.40832 11.075C9.49166 11 9.57499 10.9416 9.68332 10.9C9.98332 10.7666 10.3583 10.8416 10.5917 11.075C10.7417 11.2333 10.8333 11.45 10.8333 11.6666C10.8333 11.7166 10.825 11.775 10.8167 11.8333C10.8083 11.8833 10.7917 11.9333 10.7667 11.9833C10.75 12.0333 10.725 12.0833 10.6917 12.1333C10.6667 12.175 10.625 12.2166 10.5917 12.2583C10.4333 12.4083 10.2167 12.5 9.99999 12.5C9.89166 12.5 9.78332 12.475 9.68332 12.4333Z" fill="#262626"/>
<path id="Vector_5" d="M12.6 12.4333C12.4917 12.3917 12.4083 12.3333 12.325 12.2583C12.2917 12.2166 12.2583 12.175 12.225 12.1333C12.1917 12.0833 12.1667 12.0333 12.15 11.9833C12.125 11.9333 12.1083 11.8833 12.1 11.8333C12.0917 11.775 12.0833 11.7166 12.0833 11.6666C12.0833 11.45 12.175 11.2333 12.325 11.075C12.4083 11 12.4917 10.9416 12.6 10.9C12.9083 10.7666 13.275 10.8416 13.5083 11.075C13.6583 11.2333 13.75 11.45 13.75 11.6666C13.75 11.7166 13.7417 11.775 13.7333 11.8333C13.725 11.8833 13.7083 11.9333 13.6833 11.9833C13.6667 12.0333 13.6417 12.0833 13.6083 12.1333C13.5833 12.175 13.5417 12.2166 13.5083 12.2583C13.35 12.4083 13.1333 12.5 12.9167 12.5C12.8083 12.5 12.7 12.475 12.6 12.4333Z" fill="#262626"/>
<path id="Vector_6" d="M6.76667 15.3501C6.66667 15.3084 6.575 15.2501 6.49167 15.1751C6.34167 15.0167 6.25 14.8001 6.25 14.5834C6.25 14.4751 6.275 14.3667 6.31667 14.2667C6.35833 14.1584 6.41667 14.0667 6.49167 13.9917C6.8 13.6834 7.36667 13.6834 7.675 13.9917C7.825 14.1501 7.91667 14.3667 7.91667 14.5834C7.91667 14.8001 7.825 15.0167 7.675 15.1751C7.51667 15.3251 7.3 15.4167 7.08333 15.4167C6.975 15.4167 6.86667 15.3918 6.76667 15.3501Z" fill="#262626"/>
<path id="Vector_7" d="M9.40832 15.1751C9.25832 15.0167 9.16666 14.8001 9.16666 14.5834C9.16666 14.4751 9.19166 14.3667 9.23332 14.2667C9.27499 14.1584 9.33332 14.0667 9.40832 13.9917C9.71666 13.6834 10.2833 13.6834 10.5917 13.9917C10.6667 14.0667 10.725 14.1584 10.7667 14.2667C10.8083 14.3667 10.8333 14.4751 10.8333 14.5834C10.8333 14.8001 10.7417 15.0167 10.5917 15.1751C10.4333 15.3251 10.2167 15.4167 9.99999 15.4167C9.78332 15.4167 9.56666 15.3251 9.40832 15.1751Z" fill="#262626"/>
<path id="Vector_8" d="M12.325 15.175C12.25 15.1 12.1917 15.0083 12.15 14.9C12.1083 14.8 12.0833 14.6917 12.0833 14.5833C12.0833 14.475 12.1083 14.3667 12.15 14.2667C12.1917 14.1583 12.25 14.0667 12.325 13.9917C12.5167 13.8 12.8083 13.7083 13.075 13.7667C13.1333 13.775 13.1833 13.7917 13.2333 13.8167C13.2833 13.8333 13.3333 13.8584 13.3833 13.8917C13.425 13.9167 13.4667 13.9583 13.5083 13.9917C13.6583 14.15 13.75 14.3667 13.75 14.5833C13.75 14.8 13.6583 15.0167 13.5083 15.175C13.35 15.325 13.1333 15.4167 12.9167 15.4167C12.7 15.4167 12.4833 15.325 12.325 15.175Z" fill="#262626"/>
<path id="Vector_9" d="M2.91666 8.61658C2.57499 8.61658 2.29166 8.33324 2.29166 7.99158C2.29166 7.64991 2.57499 7.36658 2.91666 7.36658H17.0833C17.425 7.36658 17.7083 7.64991 17.7083 7.99158C17.7083 8.33324 17.425 8.61658 17.0833 8.61658H2.91666Z" fill="#262626"/>
<path id="Vector_10" fill-rule="evenodd" clip-rule="evenodd" d="M6.66667 19.375C3.625 19.375 1.875 17.625 1.875 14.5834V7.50004C1.875 4.45837 3.625 2.70837 6.66667 2.70837H13.3333C16.375 2.70837 18.125 4.45837 18.125 7.50004V14.5834C18.125 17.625 16.375 19.375 13.3333 19.375H6.66667ZM3.125 7.50004V14.5834C3.125 16.9667 4.28333 18.125 6.66667 18.125H13.3333C15.7167 18.125 16.875 16.9667 16.875 14.5834V7.50004C16.875 5.11671 15.7167 3.95837 13.3333 3.95837H6.66667C4.28333 3.95837 3.125 5.11671 3.125 7.50004Z" fill="#262626"/>
</g>
</svg>
