<svg width="33" height="33" viewBox="0 0 33 33" fill="none" xmlns="http://www.w3.org/2000/svg">
<g id="vuesax/outline/clock">
<path id="Vector" fill-rule="evenodd" clip-rule="evenodd" d="M2.1665 16.5C2.1665 8.59332 8.59317 2.16666 16.4998 2.16666C24.4065 2.16666 30.8332 8.59332 30.8332 16.5C30.8332 24.4067 24.4065 30.8333 16.4998 30.8333C8.59317 30.8333 2.1665 24.4067 2.1665 16.5ZM4.1665 16.5C4.1665 23.3 9.69984 28.8333 16.4998 28.8333C23.2998 28.8333 28.8332 23.3 28.8332 16.5C28.8332 9.69999 23.2998 4.16666 16.4998 4.16666C9.69984 4.16666 4.1665 9.69999 4.1665 16.5Z" fill="black"/>
<path id="Vector_2" d="M20.9395 21.5933L16.8062 19.1267C15.7795 18.5133 15.0195 17.1667 15.0195 15.98V10.5133C15.0195 9.96667 15.4729 9.51334 16.0195 9.51334C16.5662 9.51334 17.0195 9.96667 17.0195 10.5133V15.98C17.0195 16.46 17.4195 17.1667 17.8329 17.4067L21.9662 19.8733C22.4462 20.1533 22.5929 20.7667 22.3129 21.2467C22.1129 21.5667 21.7795 21.74 21.4462 21.74C21.2729 21.74 21.0995 21.7 20.9395 21.5933Z" fill="black"/>
</g>
</svg>
