<svg width="25" height="24" viewBox="0 0 25 24" fill="none" xmlns="http://www.w3.org/2000/svg">
<g id="vuesax/outline/close-circle">
<circle id="Ellipse 7" cx="13" cy="12.0002" r="10" fill="#262626"/>
<path id="Vector" d="M9.2175 14.9377C8.9275 14.6477 8.9275 14.1677 9.2175 13.8777L14.8775 8.21768C15.1675 7.92768 15.6475 7.92768 15.9375 8.21768C16.2275 8.50768 16.2275 8.98768 15.9375 9.27768L10.2775 14.9377C10.1375 15.0877 9.9375 15.1577 9.7475 15.1577C9.5575 15.1577 9.3675 15.0877 9.2175 14.9377Z" fill="white"/>
<path id="Vector_2" d="M14.8775 14.9377L9.2175 9.27768C8.9275 8.98768 8.9275 8.50768 9.2175 8.21768C9.5075 7.92768 9.9875 7.92768 10.2775 8.21768L15.9375 13.8777C16.2275 14.1677 16.2275 14.6477 15.9375 14.9377C15.7875 15.0877 15.5975 15.1577 15.4075 15.1577C15.2175 15.1577 15.0275 15.0877 14.8775 14.9377Z" fill="white"/>
</g>
</svg>
