<svg width="24" height="24" viewBox="0 0 24 24" fill="none" xmlns="http://www.w3.org/2000/svg">
<g id="vuesax/outline/setting-5">
<path id="Vector" d="M2 18.25H13C13.41 18.25 13.75 18.59 13.75 19C13.75 19.41 13.41 19.75 13 19.75H2C1.59 19.75 1.25 19.41 1.25 19C1.25 18.59 1.59 18.25 2 18.25Z" fill="#262626"/>
<path id="Vector_2" d="M17 18.25H22C22.41 18.25 22.75 18.59 22.75 19C22.75 19.41 22.41 19.75 22 19.75H17C16.59 19.75 16.25 19.41 16.25 19C16.25 18.59 16.59 18.25 17 18.25Z" fill="#262626"/>
<path id="Vector_3" d="M2 11.25H7C7.41 11.25 7.75 11.59 7.75 12C7.75 12.41 7.41 12.75 7 12.75H2C1.59 12.75 1.25 12.41 1.25 12C1.25 11.59 1.59 11.25 2 11.25Z" fill="#262626"/>
<path id="Vector_4" d="M11 11.25H22C22.41 11.25 22.75 11.59 22.75 12C22.75 12.41 22.41 12.75 22 12.75H11C10.59 12.75 10.25 12.41 10.25 12C10.25 11.59 10.59 11.25 11 11.25Z" fill="#262626"/>
<path id="Vector_5" d="M2 4.25H13C13.41 4.25 13.75 4.59 13.75 5C13.75 5.41 13.41 5.75 13 5.75H2C1.59 5.75 1.25 5.41 1.25 5C1.25 4.59 1.59 4.25 2 4.25Z" fill="#262626"/>
<path id="Vector_6" d="M17 4.25H22C22.41 4.25 22.75 4.59 22.75 5C22.75 5.41 22.41 5.75 22 5.75H17C16.59 5.75 16.25 5.41 16.25 5C16.25 4.59 16.59 4.25 17 4.25Z" fill="#262626"/>
<path id="Vector_7" d="M12.25 3C12.25 2.59 12.59 2.25 13 2.25C13.41 2.25 13.75 2.59 13.75 3V7C13.75 7.41 13.41 7.75 13 7.75C12.59 7.75 12.25 7.41 12.25 7V3Z" fill="#262626"/>
<path id="Vector_8" d="M12.25 17C12.25 16.59 12.59 16.25 13 16.25C13.41 16.25 13.75 16.59 13.75 17V21C13.75 21.41 13.41 21.75 13 21.75C12.59 21.75 12.25 21.41 12.25 21V17Z" fill="#262626"/>
<path id="Vector_9" d="M10.25 10C10.25 9.59 10.59 9.25 11 9.25C11.41 9.25 11.75 9.59 11.75 10V14C11.75 14.41 11.41 14.75 11 14.75C10.59 14.75 10.25 14.41 10.25 14V10Z" fill="#262626"/>
</g>
</svg>
