<svg width="20" height="21" viewBox="0 0 20 21" fill="none" xmlns="http://www.w3.org/2000/svg">
<g id="vuesax/outline/location">
<path id="Vector" fill-rule="evenodd" clip-rule="evenodd" d="M6.77573 8.99999C6.77573 7.21666 8.22573 5.78333 10.0007 5.78333C11.7757 5.78333 13.2257 7.22499 13.2257 9.00833C13.2257 10.7917 11.7757 12.225 10.0007 12.225C8.22573 12.225 6.77573 10.7833 6.77573 8.99999ZM8.02573 9.00833C8.02573 10.1 8.90906 10.9833 10.0007 10.9833C11.0924 10.9833 11.9757 10.1 11.9757 9.00833C11.9757 7.91666 11.0841 7.03333 10.0007 7.03333C8.91739 7.03333 8.02573 7.91666 8.02573 9.00833Z" fill="#262626"/>
<path id="Vector_2" fill-rule="evenodd" clip-rule="evenodd" d="M6.55808 17.9917C4.09975 15.625 1.38308 11.85 2.40808 7.35837C3.33308 3.28337 6.89142 1.45837 9.99975 1.45837C9.99975 1.45837 9.99975 1.45837 10.0081 1.45837C13.1164 1.45837 16.6748 3.28337 17.5998 7.36671C18.6164 11.8584 15.8998 15.625 13.4414 17.9917C12.4748 18.9167 11.2331 19.3834 9.99975 19.3834C8.76642 19.3834 7.52475 18.9167 6.55808 17.9917ZM3.63308 7.63337C2.73308 11.5584 5.19975 14.9417 7.43308 17.0834C8.87475 18.475 11.1331 18.475 12.5748 17.0834C14.7998 14.9417 17.2664 11.5584 16.3831 7.63337C15.5498 4.00004 12.4248 2.70837 9.99975 2.70837C7.57475 2.70837 4.45808 4.00004 3.63308 7.63337Z" fill="#262626"/>
</g>
</svg>
