<svg width="20" height="21" viewBox="0 0 20 21" fill="none" xmlns="http://www.w3.org/2000/svg">
<g id="save">
<path id="Vector" fill-rule="evenodd" clip-rule="evenodd" d="M1.04169 10.4167C1.04169 5.47504 5.05835 1.45837 10 1.45837C14.9417 1.45837 18.9584 5.47504 18.9584 10.4167C18.9584 15.3584 14.9417 19.375 10 19.375C5.05835 19.375 1.04169 15.3584 1.04169 10.4167ZM2.29169 10.4167C2.29169 14.6667 5.75002 18.125 10 18.125C14.25 18.125 17.7084 14.6667 17.7084 10.4167C17.7084 6.16671 14.25 2.70837 10 2.70837C5.75002 2.70837 2.29169 6.16671 2.29169 10.4167Z" fill="#262626"/>
<path id="Vector_2" d="M6.66669 11.0417C6.32502 11.0417 6.04169 10.7584 6.04169 10.4167C6.04169 10.0751 6.32502 9.79175 6.66669 9.79175H13.3334C13.675 9.79175 13.9584 10.0751 13.9584 10.4167C13.9584 10.7584 13.675 11.0417 13.3334 11.0417H6.66669Z" fill="#262626"/>
<path id="Vector_3" d="M9.375 13.75V7.08337C9.375 6.74171 9.65833 6.45837 10 6.45837C10.3417 6.45837 10.625 6.74171 10.625 7.08337V13.75C10.625 14.0917 10.3417 14.375 10 14.375C9.65833 14.375 9.375 14.0917 9.375 13.75Z" fill="#262626"/>
</g>
</svg>
