<svg width="30" height="30" viewBox="0 0 30 30" fill="none" xmlns="http://www.w3.org/2000/svg">
<rect width="30" height="30" rx="15" fill="#262626"/>
<path d="M14.7812 8.684C17.0492 8.72 18.7412 10.196 18.7412 12.14C18.7412 13.4 17.9672 14.426 16.8152 14.894C18.2012 15.344 19.1552 16.532 19.1552 17.99C19.1552 20.078 17.3912 21.716 14.8712 21.716C12.7292 21.716 11.1632 20.726 10.4072 19.196L11.9552 18.35C12.5132 19.412 13.5212 20.078 14.7992 20.078C16.2572 20.078 17.2472 19.142 17.2472 17.9C17.2472 16.73 16.3472 15.83 15.0692 15.83H13.3952V14.264H14.9072C16.0412 14.264 16.8692 13.436 16.8692 12.32C16.8692 11.15 15.9152 10.322 14.6192 10.322C13.4852 10.322 12.6032 10.97 12.0992 11.96L10.5512 11.15C11.2712 9.656 12.7472 8.684 14.7812 8.684Z" fill="white"/>
</svg>
